<?xml version="1.0" encoding="UTF-8"?>
<svg version="1.1" xmlns="http://www.w3.org/2000/svg" width="1200" height="1200">
<path d="M0 0 C2.57530616 -0.00115437 5.15061216 -0.00274401 7.72591782 -0.00472724 C13.29155469 -0.00831167 18.85718184 -0.00824633 24.42281914 -0.00568008 C32.70000052 -0.00187411 40.9771738 -0.00384351 49.25435514 -0.00688839 C64.04563976 -0.01213756 78.83692004 -0.01170423 93.62820507 -0.00880948 C106.57778008 -0.00628783 119.52735351 -0.00564004 132.47692871 -0.00683212 C133.76847139 -0.0069467 133.76847139 -0.0069467 135.08610584 -0.00706359 C138.5819269 -0.00737497 142.07774795 -0.00769337 145.57356901 -0.00802336 C178.33515441 -0.01107893 211.09673707 -0.00831474 243.85832205 -0.00292646 C272.91002542 0.00181537 301.96172441 0.00139696 331.01342773 -0.00338745 C363.70536586 -0.00875345 396.39730156 -0.0108588 429.08924007 -0.00777519 C432.58094724 -0.00745451 436.07265441 -0.00714167 439.56436157 -0.00683212 C440.42401277 -0.00675305 441.28366397 -0.00667397 442.1693652 -0.00659249 C455.09935083 -0.00545937 468.02933469 -0.00677722 480.95932007 -0.00931168 C495.68096628 -0.01218305 510.4026075 -0.01143062 525.12425309 -0.00603093 C533.34351961 -0.00311491 541.56277531 -0.00287328 549.78204152 -0.00667711 C555.94940225 -0.00921419 562.11675051 -0.00642292 568.28410971 -0.00170253 C570.75640268 -0.0005983 573.22869713 -0.00112435 575.70098913 -0.00357832 C597.73647866 -0.02374833 619.94658919 -0.03443114 641.8684082 2.43948364 C643.06449707 2.57064575 644.26058594 2.70180786 645.49291992 2.83694458 C672.6788113 5.9416291 699.72719625 11.5612031 725.0559082 22.12698364 C725.90926758 22.48099243 726.76262695 22.83500122 727.6418457 23.19973755 C748.35475476 31.91642011 767.57461664 42.98281036 785.0559082 57.12698364 C785.62067871 57.58282837 786.18544922 58.0386731 786.76733398 58.5083313 C798.22877529 67.83522599 809.67363628 77.67669355 819.0559082 89.12698364 C820.15225586 90.39155396 820.15225586 90.39155396 821.27075195 91.68167114 C834.06103028 106.59355962 844.11556813 122.65253832 853.0559082 140.12698364 C853.47501465 140.94457153 853.89412109 141.76215942 854.32592773 142.60452271 C878.31748669 189.96423023 883.48672793 241.88817283 883.56199384 294.1906848 C883.57180365 298.80752908 883.59834732 303.42428811 883.62229919 308.04107666 C883.66685986 317.1692242 883.69527692 326.29735458 883.71784896 335.42558026 C883.73689644 343.00485525 883.76227085 350.58408755 883.79144287 358.16333008 C883.92146871 392.15115007 884.00007315 426.13896603 884.0559082 460.12698364 C884.05916123 462.08162883 884.05916123 462.08162883 884.06247997 464.0757618 C884.17824323 533.96321601 884.2093198 603.85059194 884.07286865 712.26427048 C884.05954385 721.38515313 884.04790325 730.5060368 884.0369873 739.62692261 C884.00468299 766.00229971 883.95809169 792.37754457 883.86879158 818.75279713 C883.86131283 820.96410431 883.85384043 823.17541152 883.84637451 825.38671875 C883.84087225 827.01067382 883.84087225 827.01067382 883.83525884 828.66743606 C883.8108737 836.12637055 883.79596228 843.58528466 883.78546143 851.04425049 C883.7726892 859.99030407 883.74598359 868.93618576 883.70149577 877.8821401 C883.67951916 882.35963303 883.66293513 886.83692221 883.66399002 891.31447411 C883.66359142 908.83645836 883.15963536 926.12027526 881.19360352 943.54397583 C881.11100769 944.27664814 881.02841186 945.00932046 880.94331312 945.76419497 C874.07473308 1005.28010267 850.77936903 1059.79568232 809.0559082 1103.12698364 C808.30325684 1103.9125061 808.30325684 1103.9125061 807.53540039 1104.71389771 C800.77631382 1111.73378504 793.76976267 1118.14849565 786.0559082 1124.12698364 C785.50016113 1124.56977661 784.94441406 1125.01256958 784.37182617 1125.46878052 C741.5715131 1159.54077422 689.53735648 1175.10965439 635.6809082 1179.87698364 C634.68196533 1179.96586853 634.68196533 1179.96586853 633.6628418 1180.05654907 C612.81213758 1181.86645221 591.94455624 1182.27586628 571.02645874 1182.25396729 C568.58697125 1182.25512249 566.14748393 1182.25671268 563.70799696 1182.25869453 C558.44816762 1182.26197423 553.18834765 1182.2622193 547.9285183 1182.25964737 C540.1056339 1182.25583279 532.28275803 1182.25781521 524.45987367 1182.26085568 C510.47653724 1182.26609887 496.49320539 1182.26567381 482.50986853 1182.26277676 C470.26342083 1182.26025236 458.0169748 1182.25960859 445.77052689 1182.26079941 C444.95537387 1182.26087579 444.14022086 1182.26095218 443.30036624 1182.26103088 C439.99050259 1182.26134227 436.68063894 1182.26166067 433.3707753 1182.26199064 C402.3620251 1182.26504498 371.3532778 1182.26228432 340.34452805 1182.25689374 C312.87657508 1182.25215494 285.40862675 1182.25256805 257.94067383 1182.25735474 C227.0065509 1182.26272757 196.07243054 1182.26482206 165.13830721 1182.26174247 C161.83044155 1182.26142182 158.5225759 1182.26110897 155.21471024 1182.26079941 C154.40036616 1182.26072033 153.58602209 1182.26064125 152.74700092 1182.26055978 C140.52670041 1182.25942916 128.30640178 1182.26073981 116.08610153 1182.26327896 C102.16005553 1182.26615829 88.2340148 1182.26538146 74.30796944 1182.25999822 C67.21884016 1182.25734715 60.12971946 1182.2561976 53.04059029 1182.25964737 C3.9716695 1182.2818724 3.9716695 1182.2818724 -18.0430603 1181.70092773 C-18.76022294 1181.68284302 -19.47738558 1181.66475831 -20.21628042 1181.64612557 C-84.56839883 1179.95304054 -150.24099447 1166.08363228 -200.9440918 1124.12698364 C-201.73178955 1123.4893811 -201.73178955 1123.4893811 -202.53540039 1122.83889771 C-218.3346829 1110.02815985 -232.97901192 1095.5983923 -244.9440918 1079.12698364 C-245.78700389 1078.0013557 -246.63076299 1076.87636156 -247.4753418 1075.75198364 C-273.61089489 1040.54919903 -288.42767173 998.91355935 -294.7565918 955.81448364 C-295.048927 953.8640918 -295.048927 953.8640918 -295.34716797 951.8742981 C-299.96468186 919.27520889 -299.2327658 886.26460578 -299.19337095 853.43146011 C-299.18478164 845.91841849 -299.18814793 838.4053924 -299.19171129 830.89234839 C-299.19794647 817.02741057 -299.19486071 803.16248988 -299.18611717 789.29755402 C-299.17746541 775.57428071 -299.17259789 761.85101511 -299.17278481 748.12773895 C-299.17279245 747.27009421 -299.1728001 746.41244946 -299.17280797 745.52881548 C-299.17284889 742.04644156 -299.17291451 738.56406765 -299.17301379 735.08169374 C-299.1739175 702.49192035 -299.16401088 669.90215865 -299.14858412 637.31238931 C-299.13495792 608.42001932 -299.12872317 579.5276576 -299.12939453 550.63528442 C-299.12943494 548.77923601 -299.1294753 546.92318759 -299.12951561 545.06713918 C-299.12954614 543.69067996 -299.12954614 543.69067996 -299.12957728 542.28641349 C-299.12967809 537.6661735 -299.12976867 533.04593351 -299.12984753 528.42569351 C-299.12986424 527.5139914 -299.12988095 526.60228929 -299.12989817 525.66295985 C-299.1302641 501.44668049 -299.12571666 477.23040217 -299.11952096 453.01412368 C-299.11930069 452.15169377 -299.11908042 451.28926385 -299.11885347 450.4006997 C-299.11796536 446.93347427 -299.11707692 443.46624883 -299.11616252 439.9990234 C-299.11301504 427.98582999 -299.11149488 415.97263738 -299.11105103 403.95944358 C-299.11045154 388.47390308 -299.10640981 372.98836939 -299.09661957 357.50283179 C-299.09154169 349.33217883 -299.08908265 341.16153581 -299.09061575 332.99088135 C-299.09144669 326.86194426 -299.08697382 320.73302112 -299.08056525 314.60408756 C-299.07877369 312.14627346 -299.07859994 309.68845745 -299.08033254 307.2306433 C-299.10778471 263.38927912 -296.81078037 220.28958096 -283.9440918 178.12698364 C-283.68966309 177.27201294 -283.43523437 176.41704224 -283.1730957 175.53616333 C-274.43531749 146.65599198 -259.22349225 119.24328306 -239.9440918 96.12698364 C-239.48067383 95.562052 -239.01725586 94.99712036 -238.53979492 94.41506958 C-227.5737072 81.06472273 -215.61868651 68.72081938 -201.9440918 58.12698364 C-200.6137793 57.01903442 -200.6137793 57.01903442 -199.2565918 55.88870239 C-142.94507107 10.1355918 -70.1722357 -0.06910337 0 0 Z " fill="#E04F70" transform="translate(307.944091796875,8.873016357421875)"/>
<path d="M0 0 C2.57530616 -0.00115437 5.15061216 -0.00274401 7.72591782 -0.00472724 C13.29155469 -0.00831167 18.85718184 -0.00824633 24.42281914 -0.00568008 C32.70000052 -0.00187411 40.9771738 -0.00384351 49.25435514 -0.00688839 C64.04563976 -0.01213756 78.83692004 -0.01170423 93.62820507 -0.00880948 C106.57778008 -0.00628783 119.52735351 -0.00564004 132.47692871 -0.00683212 C133.76847139 -0.0069467 133.76847139 -0.0069467 135.08610584 -0.00706359 C138.5819269 -0.00737497 142.07774795 -0.00769337 145.57356901 -0.00802336 C178.33515441 -0.01107893 211.09673707 -0.00831474 243.85832205 -0.00292646 C272.91002542 0.00181537 301.96172441 0.00139696 331.01342773 -0.00338745 C363.70536586 -0.00875345 396.39730156 -0.0108588 429.08924007 -0.00777519 C432.58094724 -0.00745451 436.07265441 -0.00714167 439.56436157 -0.00683212 C440.42401277 -0.00675305 441.28366397 -0.00667397 442.1693652 -0.00659249 C455.09935083 -0.00545937 468.02933469 -0.00677722 480.95932007 -0.00931168 C495.68096628 -0.01218305 510.4026075 -0.01143062 525.12425309 -0.00603093 C533.34351961 -0.00311491 541.56277531 -0.00287328 549.78204152 -0.00667711 C555.94940225 -0.00921419 562.11675051 -0.00642292 568.28410971 -0.00170253 C570.75640268 -0.0005983 573.22869713 -0.00112435 575.70098913 -0.00357832 C597.73647866 -0.02374833 619.94658919 -0.03443114 641.8684082 2.43948364 C643.06449707 2.57064575 644.26058594 2.70180786 645.49291992 2.83694458 C672.6788113 5.9416291 699.72719625 11.5612031 725.0559082 22.12698364 C725.90926758 22.48099243 726.76262695 22.83500122 727.6418457 23.19973755 C748.35475476 31.91642011 767.57461664 42.98281036 785.0559082 57.12698364 C785.62067871 57.58282837 786.18544922 58.0386731 786.76733398 58.5083313 C798.22877529 67.83522599 809.67363628 77.67669355 819.0559082 89.12698364 C820.15225586 90.39155396 820.15225586 90.39155396 821.27075195 91.68167114 C834.06103028 106.59355962 844.11556813 122.65253832 853.0559082 140.12698364 C853.47501465 140.94457153 853.89412109 141.76215942 854.32592773 142.60452271 C878.31748669 189.96423023 883.48672793 241.88817283 883.56199384 294.1906848 C883.57180365 298.80752908 883.59834732 303.42428811 883.62229919 308.04107666 C883.66685986 317.1692242 883.69527692 326.29735458 883.71784896 335.42558026 C883.73689644 343.00485525 883.76227085 350.58408755 883.79144287 358.16333008 C883.92146871 392.15115007 884.00007315 426.13896603 884.0559082 460.12698364 C884.05916123 462.08162883 884.05916123 462.08162883 884.06247997 464.0757618 C884.17824323 533.96321601 884.2093198 603.85059194 884.07286865 712.26427048 C884.05954385 721.38515313 884.04790325 730.5060368 884.0369873 739.62692261 C884.00468299 766.00229971 883.95809169 792.37754457 883.86879158 818.75279713 C883.86131283 820.96410431 883.85384043 823.17541152 883.84637451 825.38671875 C883.84087225 827.01067382 883.84087225 827.01067382 883.83525884 828.66743606 C883.8108737 836.12637055 883.79596228 843.58528466 883.78546143 851.04425049 C883.7726892 859.99030407 883.74598359 868.93618576 883.70149577 877.8821401 C883.67951916 882.35963303 883.66293513 886.83692221 883.66399002 891.31447411 C883.66359142 908.83645836 883.15963536 926.12027526 881.19360352 943.54397583 C881.11100769 944.27664814 881.02841186 945.00932046 880.94331312 945.76419497 C874.07473308 1005.28010267 850.77936903 1059.79568232 809.0559082 1103.12698364 C808.30325684 1103.9125061 808.30325684 1103.9125061 807.53540039 1104.71389771 C800.77631382 1111.73378504 793.76976267 1118.14849565 786.0559082 1124.12698364 C785.50016113 1124.56977661 784.94441406 1125.01256958 784.37182617 1125.46878052 C741.5715131 1159.54077422 689.53735648 1175.10965439 635.6809082 1179.87698364 C634.68196533 1179.96586853 634.68196533 1179.96586853 633.6628418 1180.05654907 C612.81213758 1181.86645221 591.94455624 1182.27586628 571.02645874 1182.25396729 C568.58697125 1182.25512249 566.14748393 1182.25671268 563.70799696 1182.25869453 C558.44816762 1182.26197423 553.18834765 1182.2622193 547.9285183 1182.25964737 C540.1056339 1182.25583279 532.28275803 1182.25781521 524.45987367 1182.26085568 C510.47653724 1182.26609887 496.49320539 1182.26567381 482.50986853 1182.26277676 C470.26342083 1182.26025236 458.0169748 1182.25960859 445.77052689 1182.26079941 C444.95537387 1182.26087579 444.14022086 1182.26095218 443.30036624 1182.26103088 C439.99050259 1182.26134227 436.68063894 1182.26166067 433.3707753 1182.26199064 C402.3620251 1182.26504498 371.3532778 1182.26228432 340.34452805 1182.25689374 C312.87657508 1182.25215494 285.40862675 1182.25256805 257.94067383 1182.25735474 C227.0065509 1182.26272757 196.07243054 1182.26482206 165.13830721 1182.26174247 C161.83044155 1182.26142182 158.5225759 1182.26110897 155.21471024 1182.26079941 C154.40036616 1182.26072033 153.58602209 1182.26064125 152.74700092 1182.26055978 C140.52670041 1182.25942916 128.30640178 1182.26073981 116.08610153 1182.26327896 C102.16005553 1182.26615829 88.2340148 1182.26538146 74.30796944 1182.25999822 C67.21884016 1182.25734715 60.12971946 1182.2561976 53.04059029 1182.25964737 C3.9716695 1182.2818724 3.9716695 1182.2818724 -18.0430603 1181.70092773 C-18.76022294 1181.68284302 -19.47738558 1181.66475831 -20.21628042 1181.64612557 C-84.56839883 1179.95304054 -150.24099447 1166.08363228 -200.9440918 1124.12698364 C-201.73178955 1123.4893811 -201.73178955 1123.4893811 -202.53540039 1122.83889771 C-218.3346829 1110.02815985 -232.97901192 1095.5983923 -244.9440918 1079.12698364 C-245.78700389 1078.0013557 -246.63076299 1076.87636156 -247.4753418 1075.75198364 C-273.61089489 1040.54919903 -288.42767173 998.91355935 -294.7565918 955.81448364 C-295.048927 953.8640918 -295.048927 953.8640918 -295.34716797 951.8742981 C-299.96468186 919.27520889 -299.2327658 886.26460578 -299.19337095 853.43146011 C-299.18478164 845.91841849 -299.18814793 838.4053924 -299.19171129 830.89234839 C-299.19794647 817.02741057 -299.19486071 803.16248988 -299.18611717 789.29755402 C-299.17746541 775.57428071 -299.17259789 761.85101511 -299.17278481 748.12773895 C-299.17279245 747.27009421 -299.1728001 746.41244946 -299.17280797 745.52881548 C-299.17284889 742.04644156 -299.17291451 738.56406765 -299.17301379 735.08169374 C-299.1739175 702.49192035 -299.16401088 669.90215865 -299.14858412 637.31238931 C-299.13495792 608.42001932 -299.12872317 579.5276576 -299.12939453 550.63528442 C-299.12943494 548.77923601 -299.1294753 546.92318759 -299.12951561 545.06713918 C-299.12954614 543.69067996 -299.12954614 543.69067996 -299.12957728 542.28641349 C-299.12967809 537.6661735 -299.12976867 533.04593351 -299.12984753 528.42569351 C-299.12986424 527.5139914 -299.12988095 526.60228929 -299.12989817 525.66295985 C-299.1302641 501.44668049 -299.12571666 477.23040217 -299.11952096 453.01412368 C-299.11930069 452.15169377 -299.11908042 451.28926385 -299.11885347 450.4006997 C-299.11796536 446.93347427 -299.11707692 443.46624883 -299.11616252 439.9990234 C-299.11301504 427.98582999 -299.11149488 415.97263738 -299.11105103 403.95944358 C-299.11045154 388.47390308 -299.10640981 372.98836939 -299.09661957 357.50283179 C-299.09154169 349.33217883 -299.08908265 341.16153581 -299.09061575 332.99088135 C-299.09144669 326.86194426 -299.08697382 320.73302112 -299.08056525 314.60408756 C-299.07877369 312.14627346 -299.07859994 309.68845745 -299.08033254 307.2306433 C-299.10778471 263.38927912 -296.81078037 220.28958096 -283.9440918 178.12698364 C-283.68966309 177.27201294 -283.43523437 176.41704224 -283.1730957 175.53616333 C-274.43531749 146.65599198 -259.22349225 119.24328306 -239.9440918 96.12698364 C-239.48067383 95.562052 -239.01725586 94.99712036 -238.53979492 94.41506958 C-227.5737072 81.06472273 -215.61868651 68.72081938 -201.9440918 58.12698364 C-200.6137793 57.01903442 -200.6137793 57.01903442 -199.2565918 55.88870239 C-142.94507107 10.1355918 -70.1722357 -0.06910337 0 0 Z M77.8684082 159.93948364 C76.6208374 160.11834106 75.3732666 160.29719849 74.08789062 160.48147583 C70.40859509 161.01762262 66.73202648 161.56951426 63.0559082 162.12698364 C62.05301758 162.2750647 61.05012695 162.42314575 60.0168457 162.57571411 C44.54161631 164.90615865 29.87979425 169.16003172 15.0559082 174.12698364 C13.73067139 174.56615112 13.73067139 174.56615112 12.37866211 175.01419067 C-15.28679958 184.2938623 -40.26046194 199.27959454 -61.6940918 219.06448364 C-63.67198737 220.87755459 -65.69605997 222.59737378 -67.7565918 224.31448364 C-78.0765989 233.34188379 -86.95238632 244.02593342 -94.9440918 255.12698364 C-95.5323877 255.93063354 -95.5323877 255.93063354 -96.13256836 256.7505188 C-113.97981437 281.34702996 -126.11587047 310.59628241 -132.9440918 340.12698364 C-133.25854248 341.48146606 -133.25854248 341.48146606 -133.5793457 342.86331177 C-136.23693352 354.58555532 -138.24535749 366.30755217 -139.48847961 378.26359558 C-139.61535103 379.47261475 -139.74222245 380.68163391 -139.87293845 381.92729002 C-141.16066703 394.62124261 -141.97185033 407.32485834 -142.60888672 420.06619263 C-142.70328838 421.90871622 -142.70328838 421.90871622 -142.79959714 423.78846252 C-144.21050233 451.87027847 -144.37233052 479.92483115 -144.31413674 508.03615499 C-144.30229279 514.32535085 -144.30646435 520.61455016 -144.30833926 526.90375369 C-144.31148208 539.37247599 -144.30013927 551.84113998 -144.28027344 564.30984497 C-144.26128611 576.23141249 -144.25419313 588.15291183 -144.25976562 600.07449341 C-144.26591208 613.26173438 -144.2654885 626.44894598 -144.25427979 639.63618463 C-144.25307331 641.05936619 -144.25186733 642.48254774 -144.25066185 643.90572929 C-144.25005831 644.60479631 -144.24945477 645.30386332 -144.24883294 646.02411418 C-144.24505742 650.80002201 -144.24536904 655.57591478 -144.2472477 660.35182381 C-147.47484127 812.07982583 -147.47484127 812.07982583 -81.03393555 943.85354614 C-79.08537765 945.97328576 -77.19651847 948.13181833 -75.3190918 950.31448364 C-70.57513616 955.75026615 -65.62647761 960.67322179 -59.9440918 965.12698364 C-59.2840918 965.82823364 -58.6240918 966.52948364 -57.9440918 967.25198364 C-55.73384805 969.32408716 -53.79742725 970.17587182 -50.9440918 971.12698364 C-50.9440918 971.78698364 -50.9440918 972.44698364 -50.9440918 973.12698364 C-50.2840918 973.12698364 -49.6240918 973.12698364 -48.9440918 973.12698364 C-48.9440918 973.78698364 -48.9440918 974.44698364 -48.9440918 975.12698364 C-46.64701007 976.91394217 -44.35309113 978.56473881 -41.9440918 980.18948364 C-40.86998047 980.92050293 -40.86998047 980.92050293 -39.77416992 981.66629028 C-28.51007795 989.22036419 -16.21162572 996.79689465 -3.3190918 1001.18948364 C-0.44218601 1002.17235615 2.19304404 1003.19762367 4.8996582 1004.59182739 C8.50434684 1006.34509798 12.09716438 1007.49325718 15.9309082 1008.62698364 C24.40216487 1011.19030196 24.40216487 1011.19030196 28.0559082 1012.68948364 C37.24485921 1016.27092334 47.26708264 1018.28311937 57.0559082 1019.12698364 C57.7159082 1019.45698364 58.3759082 1019.78698364 59.0559082 1020.12698364 C78.74726283 1023.70175177 98.77051379 1025.06386288 118.72967708 1026.01387441 C120.29452425 1026.08996258 121.85924118 1026.1687731 123.42382157 1026.25016272 C139.61399467 1027.09167732 155.76583311 1027.27586169 171.97558594 1027.27224731 C174.69909293 1027.27471164 177.42259749 1027.2786256 180.14610291 1027.28242493 C186.72370687 1027.29064697 193.30130186 1027.29347602 199.87891053 1027.2940373 C205.24885018 1027.29451718 210.61878693 1027.29659504 215.98872566 1027.29973793 C231.32554598 1027.30852677 246.66235937 1027.31316088 261.99918222 1027.31240746 C263.23321983 1027.31234752 263.23321983 1027.31234752 264.4921875 1027.31228638 C265.72779324 1027.31222506 265.72779324 1027.31222506 266.98836071 1027.3121625 C280.26906162 1027.31175805 293.54973391 1027.32128121 306.83042657 1027.33542474 C320.57685933 1027.34994447 334.3232783 1027.35668629 348.0697189 1027.35583097 C355.74256648 1027.35550397 363.41538387 1027.35808284 371.08822441 1027.36900902 C452.99861144 1028.27207696 452.99861144 1028.27207696 534.0559082 1018.12698364 C535.44131873 1017.86262857 536.82673505 1017.59830379 538.2121582 1017.33401489 C579.02662979 1009.06304253 617.58029588 989.29164906 648.0559082 961.12698364 C648.98532227 960.30069458 649.91473633 959.47440552 650.87231445 958.62307739 C656.35503125 953.73711889 661.37699437 948.78024829 666.0559082 943.12698364 C666.82547852 942.23366333 667.59504883 941.34034302 668.38793945 940.41995239 C695.0910652 909.1227405 710.75557 871.17669784 719.0559082 831.12698364 C719.23460449 830.3061731 719.41330078 829.48536255 719.59741211 828.63967896 C725.48021248 801.37792112 726.26886676 773.50531674 727.12524414 745.72879028 C727.14685803 745.03814679 727.16847191 744.34750329 727.19074076 743.63593121 C728.12554513 713.71898925 728.35444871 683.8174111 728.32455921 653.88592029 C728.32089765 649.78054821 728.32171195 645.67518376 728.32353973 641.56981087 C728.3238462 640.87323364 728.32415267 640.17665641 728.32446842 639.45897077 C728.32510829 638.04103533 728.32575672 636.62309988 728.3264136 635.20516444 C728.33201472 622.14468524 728.32572073 609.08423485 728.31481287 596.02376039 C728.30585248 584.95374311 728.30747009 573.88376778 728.31665039 562.81375122 C728.32747912 549.75108617 728.33150126 536.68844574 728.32542586 523.62577683 C728.32478917 522.22028069 728.32416042 520.81478455 728.32353973 519.40928841 C728.32323118 518.71887653 728.32292263 518.02846465 728.32260473 517.3171312 C728.32091758 512.58003427 728.32380821 507.84295858 728.32849884 503.10586357 C729.44212508 360.45059838 729.44212508 360.45059838 664.2590332 237.51760864 C662.78933352 235.92282814 661.34118278 234.30791874 659.9152832 232.67385864 C633.2068081 202.12243748 597.96929262 183.91838943 560.0559082 171.12698364 C558.94046631 170.74050659 558.94046631 170.74050659 557.80249023 170.34622192 C523.06126424 158.41962118 485.34137971 157.25671638 449.01342773 156.06546021 C448.35510355 156.0436726 447.69677936 156.02188499 447.01850596 155.99943715 C418.59030804 155.06164476 390.17908236 154.82841643 361.73542547 154.85833263 C355.81227461 154.86303409 349.88912877 154.8593604 343.96597792 154.85647824 C331.52463182 154.85087442 319.08331595 154.85717222 306.64197482 154.86807898 C296.13231389 154.8770094 285.62269725 154.87544672 275.11303711 154.86624146 C262.69082139 154.85536495 250.26863165 154.85141848 237.84641182 154.85746598 C231.35029584 154.86054697 224.85420388 154.86121825 218.35808945 154.85439301 C147.92168592 154.04804508 147.92168592 154.04804508 77.8684082 159.93948364 Z " fill="#C55A88" transform="translate(307.944091796875,8.873016357421875)"/>
<path d="M0 0 C3.9604169 -0.00072039 7.92083159 -0.00281299 11.88124752 -0.00549722 C25.10098193 -0.01426708 38.32070838 -0.01892329 51.54044572 -0.01816674 C52.24653618 -0.01812679 52.95262665 -0.01808683 53.68011379 -0.01804566 C54.38712377 -0.01800478 55.09413375 -0.0179639 55.82256827 -0.01792178 C67.19916093 -0.01751807 78.57572006 -0.0270275 89.95230308 -0.04118403 C101.79052457 -0.05579178 113.62873001 -0.06244095 125.46696067 -0.06159025 C132.04963316 -0.06126611 138.63227553 -0.06386542 145.21494198 -0.0747683 C173.34899769 -0.11806826 201.44595672 0.16939759 229.56390285 1.09572387 C230.841566 1.1372765 232.11922914 1.17882914 233.43560934 1.22164094 C260.74576078 2.12927383 287.75578262 3.66324522 314.58441067 9.16725707 C315.29097805 9.30180297 315.99754543 9.43634887 316.72552395 9.57497191 C337.94258177 13.62340205 359.25235021 21.629913 378.58441067 31.16725707 C379.22974758 31.48372191 379.8750845 31.80018676 380.53997707 32.12624145 C397.42210114 40.50991021 412.33525991 51.32549514 426.22894192 64.03444457 C428.2475227 65.86221424 430.30669419 67.61071901 432.39691067 69.35475707 C442.71406029 78.37965765 451.60278328 89.06224213 459.58441067 100.16725707 C459.98192532 100.71365844 460.37943996 101.2600598 460.78900051 101.82301879 C495.75262247 150.3499935 504.8374853 209.6009801 507.35070992 267.85902953 C507.5045488 271.39970808 507.66893078 274.93968969 507.84001541 278.47957397 C508.53011334 293.21033786 508.73334854 307.90638665 508.72967434 322.65163207 C508.73267692 325.10302316 508.73608191 327.55441379 508.73985195 330.00580382 C508.74769476 335.91954209 508.75090259 341.83327098 508.75146433 347.74701339 C508.75194559 352.58713874 508.7540301 357.42726091 508.75716496 362.26738524 C508.7659563 376.13380876 508.77058842 390.00022462 508.76983448 403.86665094 C508.76977455 404.98152275 508.76977455 404.98152275 508.7697134 406.11891723 C508.76965208 407.23523121 508.76965208 407.23523121 508.76958952 408.37409699 C508.76918673 420.32152209 508.77866661 432.26891512 508.79285177 444.21633101 C508.80746179 456.62493822 508.81410836 469.0335301 508.81325799 481.44214606 C508.81293359 488.35089784 508.8155434 495.25961137 508.82643604 502.1683557 C508.86976229 531.74479554 508.5820876 561.2823265 507.65203762 590.84303832 C507.63099216 591.52071785 507.6099467 592.19839737 507.5882635 592.89661264 C505.36203647 664.39845815 494.05849356 737.55246004 443.03753567 791.56178832 C440.95413912 793.77456778 438.97693465 796.02974023 437.02191067 798.35475707 C414.18592453 824.5221106 381.46432364 842.03917186 349.17864895 853.26247191 C346.95902589 854.03660358 344.75291601 854.83745659 342.54925442 855.65553832 C282.63105156 877.08807378 212.58295561 872.49410589 150.01402141 872.43785734 C144.70433367 872.4332126 139.39465872 872.43274861 134.08496952 872.4348886 C133.31568553 872.43519507 132.54640154 872.43550153 131.75380591 872.43581729 C130.18881799 872.43645703 128.62383007 872.43710546 127.05884216 872.43776247 C112.54927822 872.44340031 98.03973997 872.43701168 83.53018025 872.42616174 C71.19660039 872.41722323 58.86305822 872.41879368 46.52947903 872.42799926 C32.04744614 872.43880405 17.56543547 872.44286092 3.08339912 872.43677473 C1.52719041 872.43613793 -0.0290183 872.43550918 -1.58522701 872.4348886 C-2.73242294 872.43442577 -2.73242294 872.43442577 -3.90279454 872.4339536 C-9.18209784 872.43225759 -14.46138634 872.43511248 -19.74068737 872.43984771 C-145.66467272 872.54271537 -145.66467272 872.54271537 -162.41558933 864.16725707 C-164.28645746 863.86921656 -166.16260637 863.60406746 -168.04058933 863.35475707 C-173.36867067 862.56146496 -178.56586833 861.52033292 -183.79058933 860.22975707 C-184.77019627 859.99325438 -184.77019627 859.99325438 -185.76959324 859.75197387 C-190.20318481 858.62694014 -194.23070244 856.99156131 -198.41558933 855.16725707 C-200.48961453 854.5120302 -202.5732243 853.88632051 -204.66558933 853.29225707 C-209.90469628 851.71753121 -214.75117213 849.79019383 -219.68512058 847.44069457 C-222.47734885 846.13845363 -225.30321878 844.99359075 -228.16558933 843.85475707 C-241.07398144 838.4818052 -252.49972008 831.38179306 -263.84430027 823.27712035 C-265.3496009 822.2138673 -266.88216849 821.18953763 -268.41558933 820.16725707 C-268.41558933 819.50725707 -268.41558933 818.84725707 -268.41558933 818.16725707 C-269.07558933 818.16725707 -269.73558933 818.16725707 -270.41558933 818.16725707 C-270.41558933 817.50725707 -270.41558933 816.84725707 -270.41558933 816.16725707 C-271.13746433 815.94038207 -271.85933933 815.71350707 -272.60308933 815.47975707 C-275.99132172 813.89858196 -277.80235596 811.8377982 -280.41558933 809.16725707 C-282.26351036 807.49366821 -284.11805331 805.82737086 -285.97808933 804.16725707 C-301.54694399 789.99619538 -315.07455744 773.53292971 -325.41558933 755.16725707 C-325.98889988 754.15985473 -325.98889988 754.15985473 -326.57379246 753.13210082 C-369.21097648 677.58793008 -363.75013455 585.18965993 -363.71717191 501.39241123 C-363.71585396 497.24360513 -363.71857752 493.09480715 -363.72215939 488.94600272 C-363.72275457 488.24332693 -363.72334976 487.54065114 -363.72396299 486.81668214 C-363.72517551 485.386368 -363.72638965 483.95605386 -363.72760537 482.52573972 C-363.73831674 469.31187846 -363.73639707 456.09804312 -363.73022052 442.88418054 C-363.72505522 430.96388049 -363.73632668 419.04366225 -363.75531874 407.12337834 C-363.77498227 394.67984967 -363.7829051 382.23635912 -363.77919549 369.79281491 C-363.77732708 362.88808343 -363.77961644 355.98343158 -363.79391003 349.07871222 C-363.84682971 321.05120617 -363.51471149 293.10154324 -362.08038425 265.10646605 C-362.02208836 263.9404927 -361.96379247 262.77451934 -361.90373003 261.57321346 C-360.73801991 238.84438061 -359.23508833 215.86736019 -354.29058933 193.60475707 C-354.1441901 192.93088958 -353.99779087 192.25702209 -353.8469553 191.56273437 C-340.59998253 130.92649799 -306.77498596 77.6592331 -254.7874155 43.08473754 C-239.04896125 33.00213541 -222.17496609 24.93441884 -204.41558933 19.16725707 C-203.62458836 18.90364379 -202.83358738 18.64003051 -202.01861668 18.36842895 C-182.7147871 11.94285103 -163.55566543 7.94336436 -143.41558933 5.16725707 C-142.20894627 4.994281 -141.0023032 4.82130492 -139.75909519 4.64308715 C-129.7357396 3.28220227 -119.75322619 2.64020788 -109.64972019 2.21681762 C-107.03943215 2.10733007 -104.4296926 1.98879789 -101.81988621 1.86842895 C-97.13252874 1.65693236 -92.44445937 1.4730148 -87.75572491 1.29500365 C-85.58322464 1.21191437 -83.41080703 1.12662454 -81.23849392 1.03877807 C-54.16474106 -0.03396497 -27.09106126 0.00278101 0 0 Z M-82.60577488 79.06276488 C-83.56335182 79.1018558 -84.52092876 79.14094671 -85.50752318 79.1812222 C-120.079835 80.32832677 -120.079835 80.32832677 -153.96978855 86.50002074 C-156.90422452 87.30056112 -159.85910956 87.82593993 -162.85308933 88.35475707 C-199.79829498 96.19285595 -232.67080553 119.31596482 -253.61871433 150.44069457 C-268.70909938 174.22820993 -276.99828607 200.31888901 -280.41558933 228.16725707 C-280.57680271 229.47283568 -280.73801609 230.7784143 -280.90411472 232.1235559 C-282.45487076 245.34440668 -283.01568198 258.55777528 -283.47808933 271.85475707 C-283.55629907 273.95438762 -283.63507398 276.05399719 -283.71441746 278.1535852 C-283.8733923 282.40464479 -284.02300268 286.65589152 -284.16539097 290.90753722 C-284.32073688 295.50439188 -284.49094849 300.10023571 -284.67506504 304.69601989 C-285.59964016 329.05779852 -285.56343879 353.41589822 -285.54991484 377.79209876 C-285.54733832 383.91222844 -285.54974321 390.03235681 -285.551301 396.15248656 C-285.55310754 406.41961988 -285.55075657 416.68674595 -285.54596043 426.95387816 C-285.54052077 438.73273511 -285.54228451 450.51157473 -285.54778683 462.29043126 C-285.55236156 472.50210934 -285.55294741 482.71378228 -285.55034816 492.92546105 C-285.54880914 498.98127724 -285.54852488 505.03708536 -285.55188465 511.09290099 C-285.56405843 536.47031087 -285.48067605 561.80899379 -284.41558933 587.16725707 C-284.3757782 588.14224654 -284.33596706 589.11723601 -284.29494953 590.12177062 C-284.07740655 595.40988073 -283.83223271 600.69519718 -283.54058933 605.97975707 C-283.49857395 606.74133117 -283.45655857 607.50290526 -283.41327 608.28755736 C-281.33390694 645.21480036 -276.15768843 680.28572217 -258.41558933 713.16725707 C-257.93605808 714.06573363 -257.45652683 714.9642102 -256.96246433 715.88991332 C-240.248837 745.42692714 -211.85396966 766.63609487 -180.41558933 778.16725707 C-179.76316257 778.40815063 -179.11073582 778.64904418 -178.43853855 778.89723754 C-165.9733633 783.43432204 -153.43782213 786.07514558 -140.27887058 787.63991332 C-137.31096252 788.04503727 -134.46168446 788.5626973 -131.53277683 789.15944457 C-123.82771414 790.58679639 -116.0381936 790.84639295 -108.22808933 791.22975707 C-105.97001286 791.3472914 -103.71204873 791.46683214 -101.45408726 791.58655334 C-98.63726285 791.73446277 -95.8200479 791.8743744 -93.0028677 792.01531386 C-91.14577782 792.12437526 -89.29005503 792.25774245 -87.4357481 792.40681624 C-74.36186871 793.39194142 -61.29121681 793.31743636 -48.18664896 793.31264079 C-44.65729143 793.31243432 -41.12794174 793.31797894 -37.59858799 793.32269835 C-30.70086979 793.33095557 -23.80316015 793.33375103 -16.90543742 793.33431073 C-11.28396195 793.33478865 -5.66248926 793.33685707 -0.04101467 793.34001136 C15.96652285 793.34880779 31.97405371 793.35343281 47.98159366 793.35268088 C49.27228422 793.35262095 49.27228422 793.35262095 50.58904934 793.3525598 C51.45058581 793.35251892 52.31212229 793.35247804 53.19976593 793.35243592 C67.1182978 793.35203069 81.03680247 793.36157187 94.95532649 793.37569817 C109.31506187 793.39015473 123.67478407 793.39696317 138.03452688 793.3961044 C146.06861685 793.3957754 154.10267835 793.39838929 162.13676167 793.40928245 C168.98618534 793.41851103 175.8355677 793.42046412 182.68499499 793.41377302 C186.16255588 793.41056747 189.64003813 793.41022594 193.1175909 793.41912627 C211.80089448 793.45802082 230.3229211 792.7022196 248.95321 791.41587579 C253.46706438 791.1068241 257.98240556 790.82483853 262.49824089 790.54643768 C292.8806937 788.49306022 322.84403708 782.17175075 349.58441067 767.16725707 C350.61952785 766.62842895 351.65464504 766.08960082 352.72112942 765.53444457 C361.331462 760.87473517 368.43829979 754.78280274 375.58441067 748.16725707 C376.18076321 747.61618285 376.77711575 747.06510863 377.39153957 746.4973352 C396.48785278 728.63487408 408.48471731 707.92121122 416.58441067 683.16725707 C416.98853176 681.94595092 416.98853176 681.94595092 417.40081692 680.69997191 C425.70872035 655.11905428 427.32371628 629.05353022 428.40960598 602.3825891 C428.54923836 598.95416657 428.71104254 595.5275254 428.88909817 592.10085082 C430.68123597 557.04215327 430.73956872 521.9098269 430.71873617 486.81555915 C430.71613943 481.03675461 430.71856958 475.25795135 430.72012234 469.47914672 C430.72192214 459.7980321 430.71959495 450.1169252 430.71478176 440.43581176 C430.70933102 429.34638279 430.71111664 418.25697219 430.71660817 407.16754365 C430.72118775 397.52208227 430.7217668 387.87662633 430.7191695 378.23116422 C430.71763464 372.52419492 430.71733425 366.81723419 430.72070599 361.11026549 C430.73364957 335.7772102 430.56145342 310.48351156 429.58441067 285.16725707 C429.5446052 284.13583146 429.50479973 283.10440585 429.46378803 282.04172492 C429.24853444 276.58136587 429.00226886 271.12401343 428.70941067 265.66725707 C428.64738461 264.49794646 428.64738461 264.49794646 428.58410549 263.30501342 C427.82040752 249.18744988 426.66753813 235.15925895 424.58441067 221.16725707 C424.45872707 220.31180297 424.33304348 219.45634887 424.20355129 218.57497191 C419.38728755 187.40983379 407.09447685 157.62482014 385.60784817 134.37819457 C383.99931058 132.6206033 382.49515693 130.84850569 381.02191067 128.97975707 C377.83311849 125.30038148 374.3373719 122.25901143 370.58441067 119.16725707 C369.68077785 118.40284301 368.77714504 117.63842895 367.84612942 116.85085082 C355.24724523 106.62126124 340.85851306 99.51420176 325.58441067 94.16725707 C324.38429348 93.69159301 323.18417629 93.21592895 321.94769192 92.72585082 C290.39026995 80.88203161 254.41460699 80.27257455 221.14422512 79.05885863 C220.02298138 79.01693405 218.90173764 78.97500946 217.74651682 78.93181443 C191.33635498 77.96420226 164.93580983 77.87137616 138.51090312 77.89860606 C134.55114777 77.90169147 130.59140154 77.90145828 126.63164616 77.89962554 C125.62660823 77.89916584 125.62660823 77.89916584 124.60126651 77.89869685 C123.23760991 77.89805702 121.87395332 77.89740859 120.51029674 77.89675167 C107.91051411 77.89113342 95.31076123 77.89747037 82.71098349 77.9083524 C72.03344249 77.91729046 61.35594504 77.91571687 50.67840481 77.90651488 C38.09704151 77.89567631 25.51570381 77.89167127 12.93433648 77.89773941 C11.57892311 77.89837612 10.22350973 77.89900487 8.86809635 77.89962554 C8.20222142 77.89993409 7.5363465 77.90024264 6.85029354 77.90056054 C2.28461542 77.90224662 -2.28104509 77.89935911 -6.8467207 77.89466643 C-32.11732128 77.87232044 -57.35400064 78.01151982 -82.60577488 79.06276488 Z " fill="#FEFEFE" transform="translate(527.4155893325806,163.83274292945862)"/>
<path d="M0 0 C0.73863281 -0.00535767 1.47726562 -0.01071533 2.23828125 -0.01623535 C12.77470867 -0.07413424 22.95748636 0.68031426 33.375 2.25 C34.38385254 2.40130371 35.39270508 2.55260742 36.43212891 2.70849609 C48.42996879 4.60714416 59.9239042 7.2035506 71.375 11.25 C71.99971191 11.46350098 72.62442383 11.67700195 73.26806641 11.89697266 C96.7522452 19.9454281 119.01088152 31.67857783 138.375 47.25 C139.85419922 48.42369141 139.85419922 48.42369141 141.36328125 49.62109375 C155.41335335 61.00127642 168.50372188 73.97661213 179.16455078 88.59960938 C180.36561764 90.23720759 181.59888807 91.84562369 182.83984375 93.453125 C217.23130122 138.79009667 230.31737156 198.98035955 222.73876953 254.8203125 C221.60839132 262.37032859 220.11197893 269.8176312 218.375 277.25 C218.20661621 277.9821875 218.03823242 278.714375 217.86474609 279.46875 C211.85588994 304.90988977 200.68311818 330.0356 185.375 351.25 C184.67890625 352.219375 183.9828125 353.18875 183.265625 354.1875 C169.37844113 373.09770782 153.42887553 390.45705767 134.375 404.25 C133.33214844 405.01441406 132.28929687 405.77882813 131.21484375 406.56640625 C112.81466784 419.6768166 93.45911114 429.42451592 72.0625 436.5625 C71.42478668 436.77559814 70.78707336 436.98869629 70.1300354 437.20825195 C59.01309599 440.89928837 47.88593715 444.02156511 36.3125 445.875 C35.60029297 445.99617188 34.88808594 446.11734375 34.15429688 446.2421875 C-23.29232197 455.67142735 -82.80222015 440.25432808 -130.01171875 406.87890625 C-132.93944068 404.73191017 -135.79281067 402.52128154 -138.625 400.25 C-139.62144531 399.45722656 -140.61789062 398.66445313 -141.64453125 397.84765625 C-155.90163983 386.26985495 -168.85251968 373.13134253 -179.625 358.25 C-180.77162109 356.68572266 -180.77162109 356.68572266 -181.94140625 355.08984375 C-216.22384899 306.97518063 -231.05376371 246.39960702 -221.52783203 187.90429688 C-215.4215399 154.16461776 -202.69753108 122.13992123 -182.625 94.25 C-182.22313477 93.69119141 -181.82126953 93.13238281 -181.40722656 92.55664062 C-175.09320477 83.8767686 -168.05768009 75.98072664 -160.625 68.25 C-160.10534668 67.70311523 -159.58569336 67.15623047 -159.05029297 66.59277344 C-117.71543024 23.23381364 -59.3777318 0.2404336 0 0 Z " fill="#FEFEFE" transform="translate(599.625,375.75)"/>
<path d="M0 0 C3.55103971 3.10246473 6.9585799 6.33969929 10.35400391 9.61083984 C11.05912109 10.25279297 11.76423828 10.89474609 12.49072266 11.55615234 C35.97104919 33.56002833 51.23677621 68.97510092 52.47973633 100.83349609 C53.44049906 144.91341136 42.16196876 181.96520691 11.35400391 214.61083984 C10.68111328 215.34818359 10.00822266 216.08552734 9.31494141 216.84521484 C-7.38145697 234.47961313 -30.19945831 246.15459273 -53.27099609 252.86083984 C-54.11750732 253.10729248 -54.96401855 253.35374512 -55.83618164 253.60766602 C-67.0169057 256.72113552 -77.80330886 257.94318692 -89.39916992 257.87158203 C-91.44594304 257.86090532 -93.49182824 257.87152045 -95.53857422 257.88427734 C-108.17944215 257.89944381 -120.58602639 256.65582799 -132.77099609 253.11083984 C-133.64643066 252.85657227 -134.52186523 252.60230469 -135.42382812 252.34033203 C-172.39887201 241.01107835 -203.40854296 214.49021791 -221.64599609 180.61083984 C-238.92243285 147.11570736 -244.01213252 106.92629108 -232.64599609 70.61083984 C-232.42669434 69.88783691 -232.20739258 69.16483398 -231.98144531 68.41992188 C-224.94978465 45.91334058 -211.87318631 26.44371056 -195.64599609 9.61083984 C-195.05431641 8.96759766 -194.46263672 8.32435547 -193.85302734 7.66162109 C-144.17088567 -44.96464749 -53.9933737 -45.56842129 0 0 Z " fill="#EF4C5C" transform="translate(692.64599609375,487.38916015625)"/>
<path d="M0 0 C0.80953125 0.25652344 1.6190625 0.51304687 2.453125 0.77734375 C8.93511123 3.09375907 13.85135678 6.47689287 19 11 C19.92619141 11.78503906 19.92619141 11.78503906 20.87109375 12.5859375 C30.73783895 21.59566029 35.2432087 33.41752986 36.27734375 46.51171875 C36.68308547 61.26448767 32.44542474 74.39038706 23.0625 85.8359375 C13.41662794 95.95679569 0.13651432 101.95312231 -13.8034668 102.34326172 C-27.60815273 102.50959865 -37.8895077 99.41772533 -49 91 C-50.03125 90.2575 -51.0625 89.515 -52.125 88.75 C-60.79420876 80.45771336 -67.9409108 68.39947695 -68.23828125 56.18359375 C-68.62087623 36.41963337 -68.62087623 36.41963337 -64 28 C-63.51789062 27.11054688 -63.03578125 26.22109375 -62.5390625 25.3046875 C-55.30754572 12.7137725 -44.78583947 3.48538501 -30.71484375 -0.67578125 C-20.76621236 -3.0537468 -9.77944564 -3.12299815 0 0 Z " fill="#FEFEFE" transform="translate(849,317)"/>
<path d="M0 0 C0.66 0.33 1.32 0.66 2 1 C-8.89 11.89 -19.78 22.78 -31 34 C-31 30.39813147 -30.44216372 30.04079586 -28.03515625 27.5234375 C-27.40416016 26.85683105 -26.77316406 26.19022461 -26.12304688 25.50341797 C-25.44306641 24.80104004 -24.76308594 24.09866211 -24.0625 23.375 C-23.37607422 22.65586426 -22.68964844 21.93672852 -21.98242188 21.19580078 C-19.99696963 19.12192948 -18.00089663 17.05896187 -16 15 C-15.09121094 14.0615625 -14.18242188 13.123125 -13.24609375 12.15625 C-9.01507417 7.85900577 -4.64082228 3.85089508 0 0 Z " fill="#5C5EC3" transform="translate(102,70)"/>
</svg>
