<?xml version="1.0" encoding="UTF-8"?>
<svg version="1.1" xmlns="http://www.w3.org/2000/svg" width="350" height="350">
<path d="M0 0 C0.61601074 0.33580078 1.23202148 0.67160156 1.86669922 1.01757812 C40.16687743 21.99361753 67.86526015 58.98099621 80.05249023 100.58886719 C82.29412462 108.63897879 83.83960282 116.73000514 85 125 C85.13148438 125.91136719 85.26296875 126.82273438 85.3984375 127.76171875 C90.23113535 169.36210427 78.17434822 212.67438698 53 246 C52.35160156 246.87140625 51.70320313 247.7428125 51.03515625 248.640625 C23.54418006 283.88817221 -15.91616712 305.82088535 -60 312 C-60.92296875 312.13148438 -61.8459375 312.26296875 -62.796875 312.3984375 C-103.19449753 317.04040034 -141.84219159 305.60072295 -175.6875 284 C-176.42484375 283.53118408 -177.1621875 283.06236816 -177.921875 282.5793457 C-179.65370901 281.44376813 -181.33331557 280.22920644 -183 279 C-183 278.34 -183 277.68 -183 277 C-184.65 276.34 -186.3 275.68 -188 275 C-188 274.34 -188 273.68 -188 273 C-188.88268555 272.60192139 -188.88268555 272.60192139 -189.78320312 272.19580078 C-206.51927552 263.16790622 -219.35589883 241.34657912 -228 225 C-228.58136719 223.96359375 -229.16273438 222.9271875 -229.76171875 221.859375 C-250.03398414 184.13929468 -252.67520563 138.74238964 -241 98 C-233.02480818 72.10787102 -219.38090646 49.81342649 -201 30 C-199.84757812 28.74123047 -199.84757812 28.74123047 -198.671875 27.45703125 C-187.45457737 15.72041429 -174.01254545 7.00390858 -160 -1 C-158.87335938 -1.64839844 -157.74671875 -2.29679687 -156.5859375 -2.96484375 C-108.58198924 -28.71878679 -47.07960909 -26.47046294 0 0 Z " fill="#000000" transform="translate(256,29)"/>
<path d="M0 0 C12.21 0 24.42 0 37 0 C37.99 5.61 38.98 11.22 40 17 C45.37965341 29.65800803 52.72986546 41.38952233 65.71484375 47.21875 C73.50905986 50.08652991 79.11981791 50.31690907 88 51 C88 63.21 88 75.42 88 88 C71.67248284 88 71.67248284 88 64.9375 85.9375 C64.18581543 85.71852051 63.43413086 85.49954102 62.65966797 85.27392578 C54.21441053 82.67193173 45.75086181 78.79102364 39 73 C39 72.34 39 71.68 39 71 C38.34 71 37.68 71 37 71 C37.01110306 71.9976387 37.02220612 72.9952774 37.03364563 74.02314758 C37.13580905 83.50903922 37.21033803 92.99481663 37.25906086 102.48113728 C37.2849535 107.3560696 37.31997069 112.23055144 37.37719727 117.10522461 C37.43225414 121.82560216 37.46157255 126.54555151 37.47438622 131.26622581 C37.48349598 133.0508414 37.5012768 134.83543843 37.52865028 136.61986732 C37.85542577 158.84269291 32.99633135 177.20193183 17.41796875 193.71875 C13.26550101 197.63642554 8.76955976 200.87848725 4 204 C3.29488281 204.48339844 2.58976562 204.96679688 1.86328125 205.46484375 C-12.38736707 214.39525003 -32.34280309 215.3756195 -48.4375 211.9375 C-59.57896048 208.53625529 -69.36907238 202.77714881 -78 195 C-78.95132813 194.17048828 -78.95132813 194.17048828 -79.921875 193.32421875 C-87.6648498 186.14654963 -92.6400319 176.90879483 -96 167 C-96.2990625 166.23042969 -96.598125 165.46085938 -96.90625 164.66796875 C-102.4746573 148.29788247 -99.50054793 130.57506896 -92.30859375 115.32421875 C-83.69793975 98.29661588 -68.85265159 87.04905834 -51 81 C-50.12601563 80.62746094 -49.25203125 80.25492187 -48.3515625 79.87109375 C-43.2904396 78.5556737 -38.32869102 78.79168968 -33.125 78.875 C-31.52011719 78.88853516 -31.52011719 78.88853516 -29.8828125 78.90234375 C-27.25497561 78.92580658 -24.62760594 78.95863541 -22 79 C-22 81.97 -22 84.94 -22 88 C-18.37 88 -14.74 88 -11 88 C-11 100.21 -11 112.42 -11 125 C-15.62 125 -20.24 125 -25 125 C-34.35290253 127.41365227 -41.56434347 131.30340791 -46.66796875 139.765625 C-51.27392954 149.62263912 -51.17741207 158.71189925 -47.8515625 168.94140625 C-46.97625478 171.24635433 -46.97625478 171.24635433 -45 174 C-36.87280443 177.35688513 -27.23799204 177.17304659 -19.08984375 173.9609375 C-18.40019531 173.64382812 -17.71054688 173.32671875 -17 173 C-16.30003906 172.68289062 -15.60007812 172.36578125 -14.87890625 172.0390625 C-8.03110353 168.38862703 -4.66465953 162.33210141 -1.9407444 155.24339867 C-0.95193617 151.83429064 -0.73909556 149.05093831 -0.7215271 145.50796509 C-0.71036362 144.22076569 -0.69920013 142.93356628 -0.68769836 141.60736084 C-0.68533378 140.19348174 -0.68315806 138.77960231 -0.68115234 137.36572266 C-0.67184779 135.86731427 -0.66167833 134.36891105 -0.65071106 132.87051392 C-0.62345638 128.8131583 -0.60827512 124.75583732 -0.59528303 120.69841433 C-0.57963263 116.4542879 -0.5528485 112.210232 -0.5272522 107.96615601 C-0.4804982 99.934041 -0.44373774 91.90191269 -0.41057932 83.86973131 C-0.37233405 74.7234106 -0.32293019 65.57716078 -0.27259517 56.43089986 C-0.16932554 37.62064577 -0.08152195 18.81036178 0 0 Z " fill="#FCFDFD" transform="translate(177,64)"/>
<path d="M0 0 C3.3 0 6.6 0 10 0 C10 12.21 10 24.42 10 37 C-8.94434075 37 -24.41486319 33.37922683 -39 21 C-39.00142502 22.014608 -39.00285004 23.029216 -39.00431824 24.0745697 C-39.0210996 33.70856323 -39.06420909 43.34214039 -39.13209057 52.97591305 C-39.16615763 57.92695426 -39.19143865 62.87769354 -39.19555664 67.82885742 C-39.19988356 72.62080162 -39.22870415 77.41206708 -39.27343178 82.20379829 C-39.28626802 84.01786891 -39.29076467 85.83202134 -39.28615379 87.64613152 C-39.24549547 108.53008614 -43.97381741 126.2225017 -58.76953125 141.76171875 C-59.50558594 142.50035156 -60.24164063 143.23898437 -61 144 C-61.60199219 144.62519531 -62.20398438 145.25039063 -62.82421875 145.89453125 C-77.5756465 160.06998134 -96.12060175 162.59763676 -115.72265625 162.34375 C-127.57672459 161.91893644 -137.21566749 157.60807531 -147 151 C-147.6290625 150.61585938 -148.258125 150.23171875 -148.90625 149.8359375 C-151.83426122 148.02664755 -152.87641249 147.37076253 -154 144 C-153.30777344 144.27714844 -152.61554688 144.55429687 -151.90234375 144.83984375 C-150.94457031 145.22269531 -149.98679687 145.60554687 -149 146 C-147.45505859 146.62068359 -147.45505859 146.62068359 -145.87890625 147.25390625 C-144.78449219 147.68574219 -143.69007813 148.11757813 -142.5625 148.5625 C-141.47066406 148.99691406 -140.37882812 149.43132812 -139.25390625 149.87890625 C-123.8746769 155.17763233 -103.92616085 153.22578762 -89.32421875 146.33984375 C-76.60776698 139.82834535 -66.97587686 130.47496641 -60 118 C-59.53059494 117.29986282 -59.06118988 116.59972565 -58.57756042 115.87837219 C-51.62414824 103.19137272 -51.25646663 88.08352596 -51.29296875 73.98828125 C-51.27980746 72.15453989 -51.26448997 70.32081289 -51.24714661 68.48710632 C-51.20780091 63.73123307 -51.19713928 58.97574326 -51.19311523 54.21972656 C-51.18368713 49.33842704 -51.14621496 44.45734407 -51.11132812 39.57617188 C-51.04726789 30.05079094 -51.01360625 20.5255776 -51 11 C-50.34 11 -49.68 11 -49 11 C-49 11.66 -49 12.32 -49 13 C-48.45601563 13.26167969 -47.91203125 13.52335938 -47.3515625 13.79296875 C-45.670387 14.6558977 -44.02163795 15.5831978 -42.3984375 16.55078125 C-29.06931709 24.31749095 -15.34555248 27.51024833 0 28 C0 18.76 0 9.52 0 0 Z " fill="#F92E56" transform="translate(265,124)"/>
<path d="M0 0 C12.21 0 24.42 0 37 0 C37.495 4.95 37.495 4.95 38 10 C29.42 10 20.84 10 12 10 C11.99635437 11.88206146 11.99270874 13.76412292 11.98895264 15.70321655 C11.95199666 33.44787775 11.89445311 51.19236712 11.81609726 68.93689537 C11.77634043 78.05933286 11.74393092 87.18168451 11.72900391 96.30419922 C11.71596996 104.25826667 11.68896093 112.21214496 11.64538693 120.16610587 C11.62281119 124.37509931 11.60708698 128.5838598 11.60811615 132.79291916 C11.60886508 136.76079648 11.59082192 140.72815959 11.55883217 144.69590378 C11.55036637 146.14620618 11.54856054 147.59656648 11.55419731 149.04688263 C11.59303657 160.58345303 10.09062901 169.62845748 2 178.2421875 C-6.2146786 185.46211987 -14.53502175 186.46246158 -25.0703125 186.28515625 C-29.97818539 185.92901836 -33.04434137 184.80631472 -37 182 C-37.58394531 181.65324219 -38.16789063 181.30648437 -38.76953125 180.94921875 C-41.74229085 179.14606949 -42.8716748 178.3849756 -44 175 C-43.2575 175.165 -42.515 175.33 -41.75 175.5 C-33.05702997 176.65906267 -25.06178643 176.70691488 -17 173 C-16.30003906 172.68289062 -15.60007813 172.36578125 -14.87890625 172.0390625 C-8.03110353 168.38862703 -4.66465953 162.33210141 -1.9407444 155.24339867 C-0.95193617 151.83429064 -0.73909556 149.05093831 -0.7215271 145.50796509 C-0.71036362 144.22076569 -0.69920013 142.93356628 -0.68769836 141.60736084 C-0.68533378 140.19348174 -0.68315806 138.77960231 -0.68115234 137.36572266 C-0.67184779 135.86731427 -0.66167833 134.36891105 -0.65071106 132.87051392 C-0.62345638 128.8131583 -0.60827512 124.75583732 -0.59528303 120.69841433 C-0.57963263 116.4542879 -0.5528485 112.210232 -0.5272522 107.96615601 C-0.4804982 99.934041 -0.44373774 91.90191269 -0.41057932 83.86973131 C-0.37233405 74.7234106 -0.32293019 65.57716078 -0.27259517 56.43089986 C-0.16932554 37.62064577 -0.08152195 18.81036178 0 0 Z " fill="#22EAE1" transform="translate(177,64)"/>
<path d="M0 0 C1.06992188 0.00902344 2.13984375 0.01804688 3.2421875 0.02734375 C5.87002439 0.05080658 8.49739406 0.08363541 11.125 0.125 C11.125 3.095 11.125 6.065 11.125 9.125 C9.8875 9.23714844 9.8875 9.23714844 8.625 9.3515625 C-9.37967006 11.40120128 -27.23033154 18.59857016 -38.875 33.125 C-50.32598042 49.00701197 -56.25201439 66.68398383 -53.40625 86.3671875 C-51.17855187 97.21395579 -47.284474 108.05760157 -40.875 117.125 C-41.205 117.785 -41.535 118.445 -41.875 119.125 C-51.63408164 110.07281361 -58.58428592 100.77863364 -62.875 88.125 C-63.1740625 87.35542969 -63.473125 86.58585937 -63.78125 85.79296875 C-69.3496573 69.42288247 -66.37554793 51.70006896 -59.18359375 36.44921875 C-50.57293975 19.42161588 -35.72765159 8.17405834 -17.875 2.125 C-17.00101563 1.75246094 -16.12703125 1.37992188 -15.2265625 0.99609375 C-10.1654396 -0.3193263 -5.20369102 -0.08331032 0 0 Z " fill="#24EBE2" transform="translate(143.875,142.875)"/>
<path d="M0 0 C3.63 0 7.26 0 11 0 C11 12.21 11 24.42 11 37 C6.38 37 1.76 37 -3 37 C-12.35290253 39.41365227 -19.56434347 43.30340791 -24.66796875 51.765625 C-29.29850448 61.67523087 -29.18928885 70.78270285 -25.75390625 81.0390625 C-25.02285236 83.03467617 -25.02285236 83.03467617 -24 85 C-31.64121334 81.60390518 -35.20061517 76.20199846 -39 69 C-41.49492325 61.51523024 -41.27906043 51.49285918 -37.8125 44.375 C-36.9190661 42.88926173 -35.9848403 41.42679079 -35 40 C-34.62746094 39.41863281 -34.25492187 38.83726562 -33.87109375 38.23828125 C-29.65947225 32.41244942 -21.91493581 28.49145674 -15 27 C-4.58333333 26.47222222 -4.58333333 26.47222222 0 28 C0 18.76 0 9.52 0 0 Z " fill="#FB3159" transform="translate(155,152)"/>
<path d="M0 0 C3.3 0 6.6 0 10 0 C10.04125 1.505625 10.0825 3.01125 10.125 4.5625 C11.08474146 15.17449841 15.98308826 25.32856838 22 34 C13.18905092 31.09393258 8.03151752 22.82720295 4 14.875 C1.60024857 9.79838959 0.1121728 5.60864013 0 0 Z " fill="#EF3256" transform="translate(215,73)"/>
<path d="M0 0 C0.85658203 0.30744141 0.85658203 0.30744141 1.73046875 0.62109375 C8.79586515 2.96873739 15.58380566 3.66290026 23 4 C23 6.97 23 9.94 23 13 C16.20596221 12.28483813 9.66861169 9.77907446 4 6 C4 5.34 4 4.68 4 4 C2.68 3.34 1.36 2.68 0 2 C0 1.34 0 0.68 0 0 Z " fill="#29E5DC" transform="translate(242,111)"/>
<path d="M0 0 C0.66 0.33 1.32 0.66 2 1 C-1.3 4.3 -4.6 7.6 -8 11 C-8 6.67750434 -5.85084926 5.11604454 -3 2 C-2.01 1.34 -1.02 0.68 0 0 Z " fill="#FE4F71" transform="translate(128,184)"/>
</svg>
